<?xml version="1.0" encoding="utf-8"?>
<!-- Generator: Adobe Illustrator 18.0.0, SVG Export Plug-In . SVG Version: 6.00 Build 0)  -->
<!DOCTYPE svg PUBLIC "-//W3C//DTD SVG 1.1//EN" "http://www.w3.org/Graphics/SVG/1.1/DTD/svg11.dtd">
<svg version="1.1" id="Layer_1" xmlns="http://www.w3.org/2000/svg" xmlns:xlink="http://www.w3.org/1999/xlink" x="0px" y="0px"
	 width="223.5px" height="223.5px" viewBox="58.5 624.3 223.5 223.5" enable-background="new 58.5 624.3 223.5 223.5"
	 xml:space="preserve">
<g>
	<rect x="58.5" y="624.3" fill="#E39500" width="223.5" height="223.5"/>
	<path fill="#FFFFFF" d="M95.6,827.9l48.1-159.5c0.9-4.1,1.5-7.3,1.5-8.8c0-2.1-0.9-3.1-2.8-3.1c-6,0-11.3,4.5-16.3,12.9
		s-7.5,16.7-7.5,23.9c0,3.8,0.6,7.3,2.1,10.7c-12.3,0-18.5-5.1-18.5-14.8s5.6-19.8,17.3-29.6c11.2-9.7,21.9-14.8,31.3-14.8
		c2.5,0,5.1,0.3,7.3,1.3c2.1,0.9,4.1,2.5,6,4.7s3.1,4.5,4.7,6.6c1.3,2.1,2.5,5.1,3.8,9.1c1.3,4.1,2.1,7.5,2.8,10.4
		c0.6,2.8,1.5,6.9,2.5,12.3c1,5.4,1.5,9.8,2.1,12.9c0.3,3.1,1.3,7.9,1.9,13.9c4.7,32.4,8.1,54.7,10.4,66.3
		c1.9-7.5,4.5-18.8,8.1-34.6l9.1-38.7c2.5-9.8,5.4-19.8,8.5-30.6c3.1-10.4,6-17.9,8.5-22.3c4.5-7.9,10.7-11.9,18.2-11.9
		c-8.8,22.9-18.2,55-28.9,96.2c-10.4,41.5-15.8,70.5-15.8,87.1c-6,0-10.7-1.3-14.1-4.1c-3.4-2.8-6-7.9-7.9-15.4
		c-0.6-2.5-8.5-44.3-23.3-125.8c-19.8,63.5-32.4,103.5-37.8,120.1C112.8,819.4,105.3,827.9,95.6,827.9z"/>
</g>
</svg>
